<svg id="Layer_1" enable-background="new 0 0 512.006 512.006" height="512" viewBox="0 0 512.006 512.006" width="512" xmlns="http://www.w3.org/2000/svg"><g><path d="m196.087 406.964h120.008v105.041h-120.008z" fill="#9ee2f8"/><path d="m255.915 406.964h60.18v105.041h-60.18z" fill="#5ecef4"/><path d="m45.001 64.963h422.004v155.004h-422.004z" fill="#0b799d"/><path d="m255.915 64.963h211.09v155.004h-211.09z" fill="#07485e"/><path d="m173.389.001h165.228v159.962h-165.228z" fill="#ff415b"/><path d="m255.915.001h82.702v159.962h-82.702z" fill="#e50058"/><path d="m287.33 51.962h-16.239v-16.239h-30v16.239h-16.239v30h16.239v16.239h30v-16.239h16.239z" fill="#fff5f5"/><path d="m377.001 189.967h135.005v322.037h-135.005z" fill="#e1ebf0"/><path d="m377.001 189.967h135.005v322.037h-135.005z" fill="#b4d2d7"/><path d="m0 189.967h135.005v322.037h-135.005z" fill="#e1ebf0"/><g><path d="m37.501 249.985h30v47.333h-30z" fill="#5ecef4"/></g><g><path d="m37.501 327.32h30v47.333h-30z" fill="#5ecef4"/></g><g><path d="m37.501 404.654h30v47.333h-30z" fill="#5ecef4"/></g><g><path d="m444.504 249.985h30v47.333h-30z" fill="#5ecef4"/></g><g><path d="m444.504 327.32h30v47.333h-30z" fill="#5ecef4"/></g><g><path d="m444.504 404.654h30v47.333h-30z" fill="#5ecef4"/></g><path d="m105.005 129.963v382.042h106.082v-90.041h90.008v90.041h105.906v-382.042z" fill="#fff5f5"/><path d="m255.915 129.963v292.001h45.18v90.041h105.906v-382.042z" fill="#e1ebf0"/><path d="m181.087 391.964v120.041h30v-90.041h30.004v90.04h30v-90.04h30.004v90.041h30v-120.041z" fill="#0b799d"/><g><path d="m162.179 321.96h187.824v30h-187.824z" fill="#5ecef4"/></g><g><path d="m162.179 261.956h187.824v30h-187.824z" fill="#5ecef4"/></g><g><path d="m162.179 201.952h187.824v30h-187.824z" fill="#5ecef4"/></g><g><path d="m444.504 249.985h30v47.333h-30z" fill="#4895ff"/></g><g><path d="m444.504 327.32h30v47.333h-30z" fill="#4895ff"/></g><g><path d="m444.504 404.654h30v47.333h-30z" fill="#4895ff"/></g><path d="m271.091 81.962h16.239v-30h-16.239v-16.239h-15.176v62.478h15.176z" fill="#e1ebf0"/><path d="m255.915 391.964v120.04h15.176v-90.04h30.004v90.041h30v-120.041z" fill="#07485e"/><g fill="#4895ff"><path d="m255.915 321.96h94.088v30h-94.088z"/><path d="m255.915 261.956h94.088v30h-94.088z"/><path d="m255.915 201.952h94.088v30h-94.088z"/></g></g></svg>